<svg version="1.1" xmlns="http://www.w3.org/2000/svg" enable-background="new 0 0 8 8" style="display:none;">
  <defs>
    <symbol id="trash" viewBox="0 0 8 8">
      <path d="M3 0c-.55 0-1 .45-1 1h-1c-.55 0-1 .45-1 1h7c0-.55-.45-1-1-1h-1c0-.55-.45-1-1-1h-1zm-2 3v4.813c0 .11.077.188.188.188h4.625c.11 0 .188-.077.188-.188v-4.813h-1v3.5c0 .28-.22.5-.5.5s-.5-.22-.5-.5v-3.5h-1v3.5c0 .28-.22.5-.5.5s-.5-.22-.5-.5v-3.5h-1z"></path>
    </symbol>
    <symbol id="down" viewBox="0 0 24 24">
      <path d="M7.41 8.59L12 13.17l4.59-4.58L18 10l-6 6-6-6 1.41-1.41z"/>
      <path fill="none" d="M0 0h24v24H0V0z"/>
    </symbol>
    <symbol id="add" viewBox="0 0 24 24">
      <path d="M19 13h-6v6h-2v-6H5v-2h6V5h2v6h6v2z"/>
      <path d="M0 0h24v24H0z" fill="none"/>
    </symbol>
    <symbol id="eye" viewBox="0 0 24 24">
      <path d="M0 0h24v24H0V0z" fill="none"/>
      <path d="M12 6.5c3.79 0 7.17 2.13 8.82 5.5-1.65 3.37-5.02 5.5-8.82 5.5S4.83 15.37 3.18 12C4.83 8.63 8.21 6.5 12 6.5m0-2C7 4.5 2.73 7.61 1 12c1.73 4.39 6 7.5 11 7.5s9.27-3.11 11-7.5c-1.73-4.39-6-7.5-11-7.5zm0 5c1.38 0 2.5 1.12 2.5 2.5s-1.12 2.5-2.5 2.5-2.5-1.12-2.5-2.5 1.12-2.5 2.5-2.5m0-2c-2.48 0-4.5 2.02-4.5 4.5s2.02 4.5 4.5 4.5 4.5-2.02 4.5-4.5-2.02-4.5-4.5-4.5z"/>
    </symbol>
  </defs>
</svg>
