<svg version="1.1" xmlns="http://www.w3.org/2000/svg" enable-background="new 0 0 8 8" style="display:none;">
  <defs>
    <symbol id="trash" viewBox="0 0 8 8">
      <path d="M3 0c-.55 0-1 .45-1 1h-1c-.55 0-1 .45-1 1h7c0-.55-.45-1-1-1h-1c0-.55-.45-1-1-1h-1zm-2 3v4.813c0 .11.077.188.188.188h4.625c.11 0 .188-.077.188-.188v-4.813h-1v3.5c0 .28-.22.5-.5.5s-.5-.22-.5-.5v-3.5h-1v3.5c0 .28-.22.5-.5.5s-.5-.22-.5-.5v-3.5h-1z"></path>
    </symbol>
    <symbol id="down" viewBox="0 0 24 24">
      <path d="M7.41 8.59L12 13.17l4.59-4.58L18 10l-6 6-6-6 1.41-1.41z"/>
      <path fill="none" d="M0 0h24v24H0V0z"/>
    </symbol>
  </defs>
</svg>
